<svg height="610.0" width="1023.0" xmlns="http://www.w3.org/2000/svg"><desc>{"leftTopX": 6973, "leftTopY": 6465, "rightBottomX": 7996, "rightBottomY": 7035}</desc><g transform="translate(0.5,0.5)"><g class="reference"><polyline fill="none" points="658.0,169.0 523.0,169.0 523.0,247.0 382.0,247.0" stroke="#000000" stroke-linejoin="miter"/><g class="cardinality"><line stroke="#000000" stroke-width="1.0" x1="510.0" x2="510.0" y1="241.0" y2="253.0"/></g><g class="mandatory"><line stroke="#000000" stroke-width="1.0" x1="599.0" x2="599.0" y1="163.0" y2="175.0"/></g></g><g class="reference"><polyline fill="none" points="681.0,169.0 590.0,169.0 590.0,226.0 855.0,226.0" stroke="#000000" stroke-linejoin="miter"/><g class="cardinality"><line stroke="#000000" stroke-width="1.0" x1="763.0" x2="763.0" y1="220.0" y2="232.0"/></g><g class="mandatory"><line stroke="#000000" stroke-width="1.0" x1="599.0" x2="599.0" y1="163.0" y2="175.0"/></g></g><g class="reference"><polyline fill="none" points="901.0,156.0 512.0,156.0 512.0,377.0 615.0,377.0" stroke="#000000" stroke-linejoin="miter"/><g class="cardinality"><line stroke="#000000" stroke-width="1.0" x1="527.0" x2="542.0" y1="377.0" y2="371.0"/><line stroke="#000000" stroke-width="1.0" x1="527.0" x2="542.0" y1="377.0" y2="383.0"/><line stroke="#000000" stroke-width="1.0" x1="527.0" x2="527.0" y1="371.0" y2="383.0"/></g><g class="mandatory"><line stroke="#000000" stroke-width="1.0" x1="763.0" x2="763.0" y1="150.0" y2="162.0"/></g></g><g class="reference"><polyline fill="none" points="418.0,464.0 799.0,464.0 799.0,393.0 604.0,393.0" stroke="#000000" stroke-linejoin="miter"/><g class="cardinality"><line stroke="#000000" stroke-width="1.0" x1="791.0" x2="776.0" y1="393.0" y2="387.0"/><line stroke="#000000" stroke-width="1.0" x1="791.0" x2="776.0" y1="393.0" y2="399.0"/><line stroke="#000000" stroke-width="1.0" x1="791.0" x2="791.0" y1="387.0" y2="399.0"/></g><g class="mandatory"><line stroke="#000000" stroke-width="1.0" x1="523.0" x2="523.0" y1="458.0" y2="470.0"/></g></g><g class="reference"><polyline fill="none" points="343.0,465.0 623.0,465.0 623.0,241.0 920.0,241.0" stroke="#000000" stroke-linejoin="miter"/><g class="cardinality"><line stroke="#000000" stroke-width="1.0" x1="763.0" x2="763.0" y1="235.0" y2="247.0"/></g><g class="mandatory"><line stroke="#000000" stroke-width="1.0" x1="523.0" x2="523.0" y1="459.0" y2="471.0"/></g></g><g class="reference"><polyline fill="none" points="846.0,392.0 1003.0,392.0 1003.0,528.0 713.0,528.0" stroke="#000000" stroke-linejoin="miter"/><g class="cardinality"><line stroke="#000000" stroke-width="1.0" x1="825.0" x2="810.0" y1="528.0" y2="522.0"/><line stroke="#000000" stroke-width="1.0" x1="825.0" x2="810.0" y1="528.0" y2="534.0"/><line stroke="#000000" stroke-width="1.0" x1="825.0" x2="825.0" y1="522.0" y2="534.0"/></g><g class="mandatory"><line stroke="#000000" stroke-width="1.0" x1="992.0" x2="992.0" y1="386.0" y2="398.0"/></g></g><g class="reference"><polyline fill="none" points="650.0,519.0 556.0,519.0 556.0,477.0 408.0,477.0" stroke="#000000" stroke-linejoin="miter"/><g class="cardinality"><line stroke="#000000" stroke-width="1.0" x1="523.0" x2="523.0" y1="471.0" y2="483.0"/></g><g class="mandatory"><line stroke="#000000" stroke-width="1.0" x1="577.0" x2="577.0" y1="513.0" y2="525.0"/></g></g><g class="reference"><polyline fill="none" points="414.0,464.0 227.0,464.0 227.0,259.0 435.0,259.0" stroke="#000000" stroke-linejoin="miter"/><g class="cardinality"><line stroke="#000000" stroke-width="1.0" x1="288.0" x2="303.0" y1="259.0" y2="253.0"/><line stroke="#000000" stroke-width="1.0" x1="288.0" x2="303.0" y1="259.0" y2="265.0"/><line stroke="#000000" stroke-width="1.0" x1="288.0" x2="288.0" y1="253.0" y2="265.0"/></g><g class="mandatory"><line stroke="#000000" stroke-width="1.0" x1="301.0" x2="301.0" y1="458.0" y2="470.0"/></g></g><g class="reference"><polyline fill="none" points="911.0,155.0 542.0,155.0 542.0,312.0 763.0,312.0" stroke="#000000" stroke-linejoin="miter"/><g class="cardinality"><line stroke="#000000" stroke-width="1.0" x1="704.0" x2="719.0" y1="312.0" y2="306.0"/><line stroke="#000000" stroke-width="1.0" x1="704.0" x2="719.0" y1="312.0" y2="318.0"/><line stroke="#000000" stroke-width="1.0" x1="704.0" x2="704.0" y1="306.0" y2="318.0"/></g><g class="mandatory"><line stroke="#000000" stroke-width="1.0" x1="763.0" x2="763.0" y1="149.0" y2="161.0"/></g></g><g class="reference"><polyline fill="none" points="862.0,392.0 1000.0,392.0 1000.0,327.0 833.0,327.0" stroke="#000000" stroke-linejoin="miter"/><g class="cardinality"><line stroke="#000000" stroke-width="1.0" x1="939.0" x2="924.0" y1="327.0" y2="321.0"/><line stroke="#000000" stroke-width="1.0" x1="939.0" x2="924.0" y1="327.0" y2="333.0"/><line stroke="#000000" stroke-width="1.0" x1="939.0" x2="939.0" y1="321.0" y2="333.0"/></g><g class="mandatory"><line stroke="#000000" stroke-width="1.0" x1="992.0" x2="992.0" y1="386.0" y2="398.0"/></g></g><g class="reference"><polyline fill="none" points="148.0,278.0 218.0,278.0 218.0,354.0 323.0,354.0" stroke="#000000" stroke-linejoin="miter"/><g class="cardinality"><line stroke="#000000" stroke-width="1.0" x1="257.0" x2="272.0" y1="354.0" y2="348.0"/><line stroke="#000000" stroke-width="1.0" x1="257.0" x2="272.0" y1="354.0" y2="360.0"/><line stroke="#000000" stroke-width="1.0" x1="257.0" x2="257.0" y1="348.0" y2="360.0"/></g><g class="mandatory"><line stroke="#000000" stroke-width="1.0" x1="210.0" x2="210.0" y1="272.0" y2="284.0"/></g></g><g class="reference"><polyline fill="none" points="340.0,464.0 540.0,464.0 540.0,389.0 397.0,389.0" stroke="#000000" stroke-linejoin="miter"/><g class="cardinality"><line stroke="#000000" stroke-width="1.0" x1="490.0" x2="475.0" y1="389.0" y2="383.0"/><line stroke="#000000" stroke-width="1.0" x1="490.0" x2="475.0" y1="389.0" y2="395.0"/><line stroke="#000000" stroke-width="1.0" x1="490.0" x2="490.0" y1="383.0" y2="395.0"/></g><g class="mandatory"><line stroke="#000000" stroke-width="1.0" x1="523.0" x2="523.0" y1="458.0" y2="470.0"/></g></g><g class="reference"><polyline fill="none" points="313.0,185.0 274.0,185.0 274.0,173.0 243.0,173.0" stroke="#000000" stroke-linejoin="miter"/><g class="cardinality"><line stroke="#000000" stroke-width="1.0" x1="274.0" x2="259.0" y1="173.0" y2="167.0"/><line stroke="#000000" stroke-width="1.0" x1="274.0" x2="259.0" y1="173.0" y2="179.0"/><line stroke="#000000" stroke-width="1.0" x1="274.0" x2="274.0" y1="167.0" y2="179.0"/></g><g class="mandatory"><line stroke="#000000" stroke-width="1.0" x1="288.0" x2="288.0" y1="179.0" y2="191.0"/></g></g><g class="reference"><polyline fill="none" points="185.0,278.0 293.0,278.0 293.0,185.0 258.0,185.0" stroke="#000000" stroke-linejoin="miter"/><g class="cardinality"><line stroke="#000000" stroke-width="1.0" x1="283.0" x2="268.0" y1="185.0" y2="179.0"/><line stroke="#000000" stroke-width="1.0" x1="283.0" x2="268.0" y1="185.0" y2="191.0"/><line stroke="#000000" stroke-width="1.0" x1="283.0" x2="283.0" y1="179.0" y2="191.0"/></g><g class="mandatory"><line stroke="#000000" stroke-width="1.0" x1="210.0" x2="210.0" y1="272.0" y2="284.0"/></g></g><g class="reference"><polyline fill="none" points="841.0,156.0 748.0,156.0 748.0,93.0 393.0,93.0" stroke="#000000" stroke-linejoin="miter"/><g class="cardinality"><line stroke="#000000" stroke-width="1.0" x1="606.0" x2="591.0" y1="93.0" y2="87.0"/><line stroke="#000000" stroke-width="1.0" x1="606.0" x2="591.0" y1="93.0" y2="99.0"/><line stroke="#000000" stroke-width="1.0" x1="606.0" x2="606.0" y1="87.0" y2="99.0"/></g><g class="mandatory"><line stroke="#000000" stroke-width="1.0" x1="763.0" x2="763.0" y1="150.0" y2="162.0"/></g></g><g class="reference"><polyline fill="none" points="485.0,168.0 608.0,168.0 608.0,108.0 581.0,108.0" stroke="#000000" stroke-linejoin="miter"/><g class="cardinality"><line stroke="#000000" stroke-width="1.0" x1="606.0" x2="591.0" y1="108.0" y2="102.0"/><line stroke="#000000" stroke-width="1.0" x1="606.0" x2="591.0" y1="108.0" y2="114.0"/><line stroke="#000000" stroke-width="1.0" x1="606.0" x2="606.0" y1="102.0" y2="114.0"/></g><g class="mandatory"><line stroke="#000000" stroke-width="1.0" x1="510.0" x2="510.0" y1="162.0" y2="174.0"/></g></g><g class="table" transform="translate(303.0,158.0)"><g transform="translate(0.0,0.0)"><rect fill="#f0f0f0" height="20.0" width="192.0"/></g><g transform="translate(0.0,0.0)"><text fill="black" font-family="arial, sans-serif" font-size="12" font-weight="700" text-anchor="middle" x="97.0" y="14.1396484375">Schueler</text></g><g transform="translate(0.0,20.0)"><rect fill="#ffffff" height="110.0" width="192.0"/><g transform="translate(4.0,3.0)"><g transform="translate(0.0,0.0)"><text fill="black" font-family="arial, sans-serif" font-size="12" font-weight="400" x="1.0" y="10.86328125">Matrikelnummer</text></g><g transform="translate(0.0,14.0)"><text fill="black" font-family="arial, sans-serif" font-size="12" font-weight="400" x="1.0" y="10.86328125">Vorname</text></g><g transform="translate(0.0,28.0)"><text fill="black" font-family="arial, sans-serif" font-size="12" font-weight="400" x="1.0" y="10.86328125">Nachname</text></g><g transform="translate(0.0,42.0)"><text fill="black" font-family="arial, sans-serif" font-size="12" font-weight="400" x="1.0" y="10.86328125">Geburtsdatum</text></g><g transform="translate(0.0,56.0)"><text fill="black" font-family="arial, sans-serif" font-size="12" font-weight="400" x="1.0" y="10.86328125">RFIDChip_UID</text></g><g transform="translate(0.0,70.0)"><text fill="black" font-family="arial, sans-serif" font-size="12" font-weight="400" x="1.0" y="10.86328125">Klassen_Name</text></g></g><g transform="translate(106.25,3.0)"><g transform="translate(0.0,0.0)"><text fill="black" font-family="arial, sans-serif" font-size="12" font-weight="400" x="1.0" y="10.86328125">int</text></g><g transform="translate(0.0,14.0)"><text fill="black" font-family="arial, sans-serif" font-size="12" font-weight="400" x="1.0" y="10.86328125">varchar(50)</text></g><g transform="translate(0.0,28.0)"><text fill="black" font-family="arial, sans-serif" font-size="12" font-weight="400" x="1.0" y="10.86328125">varchar(50)</text></g><g transform="translate(0.0,42.0)"><text fill="black" font-family="arial, sans-serif" font-size="12" font-weight="400" x="1.0" y="10.86328125">date</text></g><g transform="translate(0.0,56.0)"><text fill="black" font-family="arial, sans-serif" font-size="12" font-weight="400" x="1.0" y="10.86328125">int</text></g><g transform="translate(0.0,70.0)"><text fill="black" font-family="arial, sans-serif" font-size="12" font-weight="400" x="1.0" y="10.86328125">varchar(50)</text></g></g><g transform="translate(171.75,3.0)"><g transform="translate(0.0,0.0)"><text fill="black" font-family="arial, sans-serif" font-size="12" font-weight="400" x="1.0" y="10.86328125">PK</text></g><g transform="translate(0.0,14.0)"><text fill="black" font-family="arial, sans-serif" font-size="12" font-weight="400" x="1.0" y="10.86328125">N</text></g><g transform="translate(0.0,28.0)"><text fill="black" font-family="arial, sans-serif" font-size="12" font-weight="400" x="1.0" y="10.86328125">N</text></g><g transform="translate(0.0,42.0)"><text fill="black" font-family="arial, sans-serif" font-size="12" font-weight="400" x="1.0" y="10.86328125">N</text></g><g transform="translate(0.0,56.0)"><text fill="black" font-family="arial, sans-serif" font-size="12" font-weight="400" x="1.0" y="10.86328125">FK</text></g><g transform="translate(0.0,70.0)"><text fill="black" font-family="arial, sans-serif" font-size="12" font-weight="400" x="1.0" y="10.86328125">FK</text></g></g></g><polyline fill="none" points="0.0,20.0 0.0,0.0 192.0,0.0 192.0,20.0 0.0,20.0 0.0,130.0 192.0,130.0 192.0,20.0" stroke="#000000" stroke-linejoin="miter"/></g><g class="table" transform="translate(778.0,126.0)"><g transform="translate(0.0,0.0)"><rect fill="#f0f0f0" height="20.0" width="197.0"/></g><g transform="translate(0.0,0.0)"><text fill="black" font-family="arial, sans-serif" font-size="12" font-weight="700" text-anchor="middle" x="99.5" y="14.1396484375">Lehrer</text></g><g transform="translate(0.0,20.0)"><rect fill="#ffffff" height="125.0" width="197.0"/><g transform="translate(4.0,3.0)"><g transform="translate(0.0,0.0)"><text fill="black" font-family="arial, sans-serif" font-size="12" font-weight="400" x="1.0" y="10.86328125">Matrikelnummer</text></g><g transform="translate(0.0,14.0)"><text fill="black" font-family="arial, sans-serif" font-size="12" font-weight="400" x="1.0" y="10.86328125">Vorname</text></g><g transform="translate(0.0,28.0)"><text fill="black" font-family="arial, sans-serif" font-size="12" font-weight="400" x="1.0" y="10.86328125">Nachname</text></g><g transform="translate(0.0,42.0)"><text fill="black" font-family="arial, sans-serif" font-size="12" font-weight="400" x="1.0" y="10.86328125">Geburtsdatum</text></g><g transform="translate(0.0,56.0)"><text fill="black" font-family="arial, sans-serif" font-size="12" font-weight="400" x="1.0" y="10.86328125">Kuerzel</text></g><g transform="translate(0.0,70.0)"><text fill="black" font-family="arial, sans-serif" font-size="12" font-weight="400" x="1.0" y="10.86328125">RFIDChip_UID</text></g><g transform="translate(0.0,84.0)"><text fill="black" font-family="arial, sans-serif" font-size="12" font-weight="400" x="1.0" y="10.86328125">Klassen_Name</text></g></g><g transform="translate(111.25,3.0)"><g transform="translate(0.0,0.0)"><text fill="black" font-family="arial, sans-serif" font-size="12" font-weight="400" x="1.0" y="10.86328125">int</text></g><g transform="translate(0.0,14.0)"><text fill="black" font-family="arial, sans-serif" font-size="12" font-weight="400" x="1.0" y="10.86328125">varchar(50)</text></g><g transform="translate(0.0,28.0)"><text fill="black" font-family="arial, sans-serif" font-size="12" font-weight="400" x="1.0" y="10.86328125">varchar(50)</text></g><g transform="translate(0.0,42.0)"><text fill="black" font-family="arial, sans-serif" font-size="12" font-weight="400" x="1.0" y="10.86328125">date</text></g><g transform="translate(0.0,56.0)"><text fill="black" font-family="arial, sans-serif" font-size="12" font-weight="400" x="1.0" y="10.86328125">varchar(50)</text></g><g transform="translate(0.0,70.0)"><text fill="black" font-family="arial, sans-serif" font-size="12" font-weight="400" x="1.0" y="10.86328125">int</text></g><g transform="translate(0.0,84.0)"><text fill="black" font-family="arial, sans-serif" font-size="12" font-weight="400" x="1.0" y="10.86328125">varchar(50)</text></g></g><g transform="translate(176.75,3.0)"><g transform="translate(0.0,0.0)"><text fill="black" font-family="arial, sans-serif" font-size="12" font-weight="400" x="1.0" y="10.86328125">PK</text></g><g transform="translate(0.0,14.0)"><text fill="black" font-family="arial, sans-serif" font-size="12" font-weight="400" x="1.0" y="10.86328125"/></g><g transform="translate(0.0,28.0)"><text fill="black" font-family="arial, sans-serif" font-size="12" font-weight="400" x="1.0" y="10.86328125"/></g><g transform="translate(0.0,42.0)"><text fill="black" font-family="arial, sans-serif" font-size="12" font-weight="400" x="1.0" y="10.86328125"/></g><g transform="translate(0.0,56.0)"><text fill="black" font-family="arial, sans-serif" font-size="12" font-weight="400" x="1.0" y="10.86328125"/></g><g transform="translate(0.0,70.0)"><text fill="black" font-family="arial, sans-serif" font-size="12" font-weight="400" x="1.0" y="10.86328125">FK</text></g><g transform="translate(0.0,84.0)"><text fill="black" font-family="arial, sans-serif" font-size="12" font-weight="400" x="1.0" y="10.86328125">FK</text></g></g></g><polyline fill="none" points="0.0,20.0 0.0,0.0 197.0,0.0 197.0,20.0 0.0,20.0 0.0,145.0 197.0,145.0 197.0,20.0" stroke="#000000" stroke-linejoin="miter"/></g><g class="table" transform="translate(614.0,141.0)"><g transform="translate(0.0,0.0)"><rect fill="#f0f0f0" height="20.0" width="120.0"/></g><g transform="translate(0.0,0.0)"><text fill="black" font-family="arial, sans-serif" font-size="12" font-weight="700" text-anchor="middle" x="61.0" y="14.1396484375">RFIDChip</text></g><g transform="translate(0.0,20.0)"><rect fill="#ffffff" height="40.0" width="120.0"/><g transform="translate(4.0,3.0)"><g transform="translate(0.0,0.0)"><text fill="black" font-family="arial, sans-serif" font-size="12" font-weight="400" x="1.0" y="10.86328125">UID</text></g><g transform="translate(0.0,14.0)"><text fill="black" font-family="arial, sans-serif" font-size="12" font-weight="400" x="1.0" y="10.86328125">Number</text></g></g><g transform="translate(83.0,3.0)"><g transform="translate(0.0,0.0)"><text fill="black" font-family="arial, sans-serif" font-size="12" font-weight="400" x="1.0" y="10.86328125">int</text></g><g transform="translate(0.0,14.0)"><text fill="black" font-family="arial, sans-serif" font-size="12" font-weight="400" x="1.0" y="10.86328125">int</text></g></g><g transform="translate(99.75,3.0)"><g transform="translate(0.0,0.0)"><text fill="black" font-family="arial, sans-serif" font-size="12" font-weight="400" x="1.0" y="10.86328125">PK</text></g><g transform="translate(0.0,14.0)"><text fill="black" font-family="arial, sans-serif" font-size="12" font-weight="400" x="1.0" y="10.86328125"/></g></g></g><polyline fill="none" points="0.0,20.0 0.0,0.0 120.0,0.0 120.0,20.0 0.0,20.0 0.0,60.0 120.0,60.0 120.0,20.0" stroke="#000000" stroke-linejoin="miter"/></g><g class="table" transform="translate(37.0,250.0)"><g transform="translate(0.0,0.0)"><rect fill="#f0f0f0" height="20.0" width="158.0"/></g><g transform="translate(0.0,0.0)"><text fill="black" font-family="arial, sans-serif" font-size="12" font-weight="700" text-anchor="middle" x="80.0" y="14.1396484375">RFIDLeser</text></g><g transform="translate(0.0,20.0)"><rect fill="#ffffff" height="53.0" width="158.0"/><g transform="translate(4.0,3.0)"><g transform="translate(0.0,0.0)"><text fill="black" font-family="arial, sans-serif" font-size="12" font-weight="400" x="1.0" y="10.86328125">Name</text></g><g transform="translate(0.0,14.0)"><text fill="black" font-family="arial, sans-serif" font-size="12" font-weight="400" x="1.0" y="10.86328125">Number</text></g></g><g transform="translate(72.25,3.0)"><g transform="translate(0.0,0.0)"><text fill="black" font-family="arial, sans-serif" font-size="12" font-weight="400" x="1.0" y="10.86328125">varchar(50)</text></g><g transform="translate(0.0,14.0)"><text fill="black" font-family="arial, sans-serif" font-size="12" font-weight="400" x="1.0" y="10.86328125">int</text></g></g><g transform="translate(137.75,3.0)"><g transform="translate(0.0,0.0)"><text fill="black" font-family="arial, sans-serif" font-size="12" font-weight="400" x="1.0" y="10.86328125">PK</text></g><g transform="translate(0.0,14.0)"><text fill="black" font-family="arial, sans-serif" font-size="12" font-weight="400" x="1.0" y="10.86328125"/></g></g></g><polyline fill="none" points="0.0,20.0 0.0,0.0 158.0,0.0 158.0,20.0 0.0,20.0 0.0,73.0 158.0,73.0 158.0,20.0" stroke="#000000" stroke-linejoin="miter"/></g><g class="table" transform="translate(316.0,433.0)"><g transform="translate(0.0,0.0)"><rect fill="#f0f0f0" height="20.0" width="192.0"/></g><g transform="translate(0.0,0.0)"><text fill="black" font-family="arial, sans-serif" font-size="12" font-weight="700" text-anchor="middle" x="97.0" y="14.1396484375">Klassen</text></g><g transform="translate(0.0,20.0)"><rect fill="#ffffff" height="40.0" width="192.0"/><g transform="translate(4.0,3.0)"><g transform="translate(0.0,0.0)"><text fill="black" font-family="arial, sans-serif" font-size="12" font-weight="400" x="1.0" y="10.86328125">Name</text></g><g transform="translate(0.0,14.0)"><text fill="black" font-family="arial, sans-serif" font-size="12" font-weight="400" x="1.0" y="10.86328125">Stundenplan_ID</text></g></g><g transform="translate(106.25,3.0)"><g transform="translate(0.0,0.0)"><text fill="black" font-family="arial, sans-serif" font-size="12" font-weight="400" x="1.0" y="10.86328125">varchar(50)</text></g><g transform="translate(0.0,14.0)"><text fill="black" font-family="arial, sans-serif" font-size="12" font-weight="400" x="1.0" y="10.86328125">int</text></g></g><g transform="translate(171.75,3.0)"><g transform="translate(0.0,0.0)"><text fill="black" font-family="arial, sans-serif" font-size="12" font-weight="400" x="1.0" y="10.86328125">PK</text></g><g transform="translate(0.0,14.0)"><text fill="black" font-family="arial, sans-serif" font-size="12" font-weight="400" x="1.0" y="10.86328125">FK</text></g></g></g><polyline fill="none" points="0.0,20.0 0.0,0.0 192.0,0.0 192.0,20.0 0.0,20.0 0.0,60.0 192.0,60.0 192.0,20.0" stroke="#000000" stroke-linejoin="miter"/></g><g class="table" transform="translate(542.0,347.0)"><g transform="translate(0.0,0.0)"><rect fill="#f0f0f0" height="20.0" width="234.0"/></g><g transform="translate(0.0,0.0)"><text fill="black" font-family="arial, sans-serif" font-size="12" font-weight="700" text-anchor="middle" x="118.0" y="14.1396484375">Lehrer_Klassen</text></g><g transform="translate(0.0,20.0)"><rect fill="#ffffff" height="40.0" width="234.0"/><g transform="translate(4.0,3.0)"><g transform="translate(0.0,0.0)"><text fill="black" font-family="arial, sans-serif" font-size="12" font-weight="400" x="1.0" y="10.86328125">Lehrer_Matrikelnumm</text></g><g transform="translate(0.0,14.0)"><text fill="black" font-family="arial, sans-serif" font-size="12" font-weight="400" x="1.0" y="10.86328125">Klassen_Name</text></g></g><g transform="translate(129.75,3.0)"><g transform="translate(0.0,0.0)"><text fill="black" font-family="arial, sans-serif" font-size="12" font-weight="400" x="1.0" y="10.86328125">int</text></g><g transform="translate(0.0,14.0)"><text fill="black" font-family="arial, sans-serif" font-size="12" font-weight="400" x="1.0" y="10.86328125">varchar(50)</text></g></g><g transform="translate(195.25,3.0)"><g transform="translate(0.0,0.0)"><text fill="black" font-family="arial, sans-serif" font-size="12" font-weight="400" x="1.0" y="10.86328125">PK FK</text></g><g transform="translate(0.0,14.0)"><text fill="black" font-family="arial, sans-serif" font-size="12" font-weight="400" x="1.0" y="10.86328125">PK FK</text></g></g></g><polyline fill="none" points="0.0,20.0 0.0,0.0 234.0,0.0 234.0,20.0 0.0,20.0 0.0,60.0 234.0,60.0 234.0,20.0" stroke="#000000" stroke-linejoin="miter"/></g><g class="table" transform="translate(592.0,490.0)"><g transform="translate(0.0,0.0)"><rect fill="#f0f0f0" height="20.0" width="218.0"/></g><g transform="translate(0.0,0.0)"><text fill="black" font-family="arial, sans-serif" font-size="12" font-weight="700" text-anchor="middle" x="110.0" y="14.1396484375">Stundenplan</text></g><g transform="translate(0.0,20.0)"><rect fill="#ffffff" height="40.0" width="218.0"/><g transform="translate(4.0,3.0)"><g transform="translate(0.0,0.0)"><text fill="black" font-family="arial, sans-serif" font-size="12" font-weight="400" x="1.0" y="10.86328125">ID</text></g><g transform="translate(0.0,14.0)"><text fill="black" font-family="arial, sans-serif" font-size="12" font-weight="400" x="1.0" y="10.86328125">StundenplanStunden_ID</text></g></g><g transform="translate(181.0,3.0)"><g transform="translate(0.0,0.0)"><text fill="black" font-family="arial, sans-serif" font-size="12" font-weight="400" x="1.0" y="10.86328125">int</text></g><g transform="translate(0.0,14.0)"><text fill="black" font-family="arial, sans-serif" font-size="12" font-weight="400" x="1.0" y="10.86328125">int</text></g></g><g transform="translate(197.75,3.0)"><g transform="translate(0.0,0.0)"><text fill="black" font-family="arial, sans-serif" font-size="12" font-weight="400" x="1.0" y="10.86328125">PK</text></g><g transform="translate(0.0,14.0)"><text fill="black" font-family="arial, sans-serif" font-size="12" font-weight="400" x="1.0" y="10.86328125">FK</text></g></g></g><polyline fill="none" points="0.0,20.0 0.0,0.0 218.0,0.0 218.0,20.0 0.0,20.0 0.0,60.0 218.0,60.0 218.0,20.0" stroke="#000000" stroke-linejoin="miter"/></g><g class="table" transform="translate(800.0,362.0)"><g transform="translate(0.0,0.0)"><rect fill="#f0f0f0" height="20.0" width="177.0"/></g><g transform="translate(0.0,0.0)"><text fill="black" font-family="arial, sans-serif" font-size="12" font-weight="700" text-anchor="middle" x="89.5" y="14.1396484375">StundenplanStunden</text></g><g transform="translate(0.0,20.0)"><rect fill="#ffffff" height="67.0" width="177.0"/><g transform="translate(4.0,3.0)"><g transform="translate(0.0,0.0)"><text fill="black" font-family="arial, sans-serif" font-size="12" font-weight="400" x="1.0" y="10.86328125">ID</text></g><g transform="translate(0.0,14.0)"><text fill="black" font-family="arial, sans-serif" font-size="12" font-weight="400" x="1.0" y="10.86328125">Name</text></g><g transform="translate(0.0,28.0)"><text fill="black" font-family="arial, sans-serif" font-size="12" font-weight="400" x="1.0" y="10.86328125">DateTimeVon</text></g><g transform="translate(0.0,42.0)"><text fill="black" font-family="arial, sans-serif" font-size="12" font-weight="400" x="1.0" y="10.86328125">DateTimeBis</text></g></g><g transform="translate(91.25,3.0)"><g transform="translate(0.0,0.0)"><text fill="black" font-family="arial, sans-serif" font-size="12" font-weight="400" x="1.0" y="10.86328125">int</text></g><g transform="translate(0.0,14.0)"><text fill="black" font-family="arial, sans-serif" font-size="12" font-weight="400" x="1.0" y="10.86328125">varchar(50)</text></g><g transform="translate(0.0,28.0)"><text fill="black" font-family="arial, sans-serif" font-size="12" font-weight="400" x="1.0" y="10.86328125">datetime</text></g><g transform="translate(0.0,42.0)"><text fill="black" font-family="arial, sans-serif" font-size="12" font-weight="400" x="1.0" y="10.86328125">datetime</text></g></g><g transform="translate(156.75,3.0)"><g transform="translate(0.0,0.0)"><text fill="black" font-family="arial, sans-serif" font-size="12" font-weight="400" x="1.0" y="10.86328125">PK</text></g><g transform="translate(0.0,14.0)"><text fill="black" font-family="arial, sans-serif" font-size="12" font-weight="400" x="1.0" y="10.86328125"/></g><g transform="translate(0.0,28.0)"><text fill="black" font-family="arial, sans-serif" font-size="12" font-weight="400" x="1.0" y="10.86328125"/></g><g transform="translate(0.0,42.0)"><text fill="black" font-family="arial, sans-serif" font-size="12" font-weight="400" x="1.0" y="10.86328125"/></g></g></g><polyline fill="none" points="0.0,20.0 0.0,0.0 177.0,0.0 177.0,20.0 0.0,20.0 0.0,87.0 177.0,87.0 177.0,20.0" stroke="#000000" stroke-linejoin="miter"/></g><g class="table" transform="translate(719.0,282.0)"><g transform="translate(0.0,0.0)"><rect fill="#f0f0f0" height="20.0" width="205.0"/></g><g transform="translate(0.0,0.0)"><text fill="black" font-family="arial, sans-serif" font-size="12" font-weight="700" text-anchor="middle" x="103.5" y="14.1396484375">Lehrer_StundenplanStunden</text></g><g transform="translate(0.0,20.0)"><rect fill="#ffffff" height="40.0" width="205.0"/><g transform="translate(4.0,3.0)"><g transform="translate(0.0,0.0)"><text fill="black" font-family="arial, sans-serif" font-size="12" font-weight="400" x="1.0" y="10.86328125">Lehrer_Matrikelnummer</text></g><g transform="translate(0.0,14.0)"><text fill="black" font-family="arial, sans-serif" font-size="12" font-weight="400" x="1.0" y="10.86328125">StundenplanStunden_ID</text></g></g><g transform="translate(149.5,3.0)"><g transform="translate(0.0,0.0)"><text fill="black" font-family="arial, sans-serif" font-size="12" font-weight="400" x="1.0" y="10.86328125">int</text></g><g transform="translate(0.0,14.0)"><text fill="black" font-family="arial, sans-serif" font-size="12" font-weight="400" x="1.0" y="10.86328125">int</text></g></g><g transform="translate(166.25,3.0)"><g transform="translate(0.0,0.0)"><text fill="black" font-family="arial, sans-serif" font-size="12" font-weight="400" x="1.0" y="10.86328125">PK FK</text></g><g transform="translate(0.0,14.0)"><text fill="black" font-family="arial, sans-serif" font-size="12" font-weight="400" x="1.0" y="10.86328125">PK FK</text></g></g></g><polyline fill="none" points="0.0,20.0 0.0,0.0 205.0,0.0 205.0,20.0 0.0,20.0 0.0,60.0 205.0,60.0 205.0,20.0" stroke="#000000" stroke-linejoin="miter"/></g><g class="table" transform="translate(272.0,344.0)"><g transform="translate(0.0,0.0)"><rect fill="#f0f0f0" height="20.0" width="203.0"/></g><g transform="translate(0.0,0.0)"><text fill="black" font-family="arial, sans-serif" font-size="12" font-weight="700" text-anchor="middle" x="102.5" y="14.1396484375">RFIDleser_Klassen</text></g><g transform="translate(0.0,20.0)"><rect fill="#ffffff" height="40.0" width="203.0"/><g transform="translate(4.0,3.0)"><g transform="translate(0.0,0.0)"><text fill="black" font-family="arial, sans-serif" font-size="12" font-weight="400" x="1.0" y="10.86328125">RFIDLeser_Nam</text></g><g transform="translate(0.0,14.0)"><text fill="black" font-family="arial, sans-serif" font-size="12" font-weight="400" x="1.0" y="10.86328125">Klassen_Name</text></g></g><g transform="translate(98.75,3.0)"><g transform="translate(0.0,0.0)"><text fill="black" font-family="arial, sans-serif" font-size="12" font-weight="400" x="1.0" y="10.86328125">varchar(50)</text></g><g transform="translate(0.0,14.0)"><text fill="black" font-family="arial, sans-serif" font-size="12" font-weight="400" x="1.0" y="10.86328125">varchar(50)</text></g></g><g transform="translate(164.25,3.0)"><g transform="translate(0.0,0.0)"><text fill="black" font-family="arial, sans-serif" font-size="12" font-weight="400" x="1.0" y="10.86328125">PK FK</text></g><g transform="translate(0.0,14.0)"><text fill="black" font-family="arial, sans-serif" font-size="12" font-weight="400" x="1.0" y="10.86328125">PK FK</text></g></g></g><polyline fill="none" points="0.0,20.0 0.0,0.0 203.0,0.0 203.0,20.0 0.0,20.0 0.0,60.0 203.0,60.0 203.0,20.0" stroke="#000000" stroke-linejoin="miter"/></g><g class="table" transform="translate(20.0,99.0)"><g transform="translate(0.0,0.0)"><rect fill="#f0f0f0" height="20.0" width="248.0"/></g><g transform="translate(0.0,0.0)"><text fill="black" font-family="arial, sans-serif" font-size="12" font-weight="700" text-anchor="middle" x="125.0" y="14.1396484375">Daten</text></g><g transform="translate(0.0,20.0)"><rect fill="#ffffff" height="82.0" width="248.0"/><g transform="translate(4.0,3.0)"><g transform="translate(0.0,0.0)"><text fill="black" font-family="arial, sans-serif" font-size="12" font-weight="400" x="1.0" y="10.86328125">ID</text></g><g transform="translate(0.0,14.0)"><text fill="black" font-family="arial, sans-serif" font-size="12" font-weight="400" x="1.0" y="10.86328125">DatumVon</text></g><g transform="translate(0.0,28.0)"><text fill="black" font-family="arial, sans-serif" font-size="12" font-weight="400" x="1.0" y="10.86328125">DatumBis</text></g><g transform="translate(0.0,42.0)"><text fill="black" font-family="arial, sans-serif" font-size="12" font-weight="400" x="1.0" y="10.86328125">Schueler_Matrikelnummer</text></g><g transform="translate(0.0,56.0)"><text fill="black" font-family="arial, sans-serif" font-size="12" font-weight="400" x="1.0" y="10.86328125">RFIDLeser_Name</text></g></g><g transform="translate(162.25,3.0)"><g transform="translate(0.0,0.0)"><text fill="black" font-family="arial, sans-serif" font-size="12" font-weight="400" x="1.0" y="10.86328125">int</text></g><g transform="translate(0.0,14.0)"><text fill="black" font-family="arial, sans-serif" font-size="12" font-weight="400" x="1.0" y="10.86328125">datetime</text></g><g transform="translate(0.0,28.0)"><text fill="black" font-family="arial, sans-serif" font-size="12" font-weight="400" x="1.0" y="10.86328125">datetime</text></g><g transform="translate(0.0,42.0)"><text fill="black" font-family="arial, sans-serif" font-size="12" font-weight="400" x="1.0" y="10.86328125">int</text></g><g transform="translate(0.0,56.0)"><text fill="black" font-family="arial, sans-serif" font-size="12" font-weight="400" x="1.0" y="10.86328125">varchar(50)</text></g></g><g transform="translate(227.75,3.0)"><g transform="translate(0.0,0.0)"><text fill="black" font-family="arial, sans-serif" font-size="12" font-weight="400" x="1.0" y="10.86328125">PK</text></g><g transform="translate(0.0,14.0)"><text fill="black" font-family="arial, sans-serif" font-size="12" font-weight="400" x="1.0" y="10.86328125"/></g><g transform="translate(0.0,28.0)"><text fill="black" font-family="arial, sans-serif" font-size="12" font-weight="400" x="1.0" y="10.86328125"/></g><g transform="translate(0.0,42.0)"><text fill="black" font-family="arial, sans-serif" font-size="12" font-weight="400" x="1.0" y="10.86328125">FK</text></g><g transform="translate(0.0,56.0)"><text fill="black" font-family="arial, sans-serif" font-size="12" font-weight="400" x="1.0" y="10.86328125">FK</text></g></g></g><polyline fill="none" points="0.0,20.0 0.0,0.0 248.0,0.0 248.0,20.0 0.0,20.0 0.0,102.0 248.0,102.0 248.0,20.0" stroke="#000000" stroke-linejoin="miter"/></g><g class="table" transform="translate(357.0,20.0)"><g transform="translate(0.0,0.0)"><rect fill="#f0f0f0" height="20.0" width="234.0"/></g><g transform="translate(0.0,0.0)"><text fill="black" font-family="arial, sans-serif" font-size="12" font-weight="700" text-anchor="middle" x="118.0" y="14.1396484375">Fehlzeiten</text></g><g transform="translate(0.0,20.0)"><rect fill="#ffffff" height="82.0" width="234.0"/><g transform="translate(4.0,3.0)"><g transform="translate(0.0,0.0)"><text fill="black" font-family="arial, sans-serif" font-size="12" font-weight="400" x="1.0" y="10.86328125">ID</text></g><g transform="translate(0.0,14.0)"><text fill="black" font-family="arial, sans-serif" font-size="12" font-weight="400" x="1.0" y="10.86328125">DatumVon</text></g><g transform="translate(0.0,28.0)"><text fill="black" font-family="arial, sans-serif" font-size="12" font-weight="400" x="1.0" y="10.86328125">DatumBis</text></g><g transform="translate(0.0,42.0)"><text fill="black" font-family="arial, sans-serif" font-size="12" font-weight="400" x="1.0" y="10.86328125">Lehrer_Matrikelnummer</text></g><g transform="translate(0.0,56.0)"><text fill="black" font-family="arial, sans-serif" font-size="12" font-weight="400" x="1.0" y="10.86328125">Schueler_Matrikelnummer</text></g></g><g transform="translate(163.5,3.0)"><g transform="translate(0.0,0.0)"><text fill="black" font-family="arial, sans-serif" font-size="12" font-weight="400" x="1.0" y="10.86328125">int</text></g><g transform="translate(0.0,14.0)"><text fill="black" font-family="arial, sans-serif" font-size="12" font-weight="400" x="1.0" y="10.86328125">datetime</text></g><g transform="translate(0.0,28.0)"><text fill="black" font-family="arial, sans-serif" font-size="12" font-weight="400" x="1.0" y="10.86328125">datetime</text></g><g transform="translate(0.0,42.0)"><text fill="black" font-family="arial, sans-serif" font-size="12" font-weight="400" x="1.0" y="10.86328125">int</text></g><g transform="translate(0.0,56.0)"><text fill="black" font-family="arial, sans-serif" font-size="12" font-weight="400" x="1.0" y="10.86328125">int</text></g></g><g transform="translate(213.75,3.0)"><g transform="translate(0.0,0.0)"><text fill="black" font-family="arial, sans-serif" font-size="12" font-weight="400" x="1.0" y="10.86328125">PK</text></g><g transform="translate(0.0,14.0)"><text fill="black" font-family="arial, sans-serif" font-size="12" font-weight="400" x="1.0" y="10.86328125"/></g><g transform="translate(0.0,28.0)"><text fill="black" font-family="arial, sans-serif" font-size="12" font-weight="400" x="1.0" y="10.86328125"/></g><g transform="translate(0.0,42.0)"><text fill="black" font-family="arial, sans-serif" font-size="12" font-weight="400" x="1.0" y="10.86328125">FK</text></g><g transform="translate(0.0,56.0)"><text fill="black" font-family="arial, sans-serif" font-size="12" font-weight="400" x="1.0" y="10.86328125">FK</text></g></g></g><polyline fill="none" points="0.0,20.0 0.0,0.0 234.0,0.0 234.0,20.0 0.0,20.0 0.0,102.0 234.0,102.0 234.0,20.0" stroke="#000000" stroke-linejoin="miter"/></g><g transform="translate(847.0,560.0)"><svg height="40" width="166"><svg xmlns:xlink="http://www.w3.org/1999/xlink" enable-background="new 0 0 487.7 116.5" id="Layer_1" version="1.0" viewBox="0 0 487.7 116.5" x="0px" xml:space="preserve" y="0px">
<g>
	<path d="M146.3,28.6c2.2-0.3,4.5-0.5,6.7-0.5c1.9,0,4,0.2,6.1,0.5l3.8,47l20.6-47c2-0.3,4.1-0.5,6.3-0.5   c2.2,0,4.3,0.2,6.4,0.5l-28.4,59.8c-2.5,0.3-4.9,0.5-7.3,0.5c-1.1,0-2.2,0-3.2-0.1c-1.1-0.1-2.2-0.2-3.5-0.4L146.3,28.6z" fill="#222323"/>
	<path d="M198.6,72.1c0.3,2.7,1.2,4.6,2.7,5.9c1.4,1.3,3.5,2,6.3,2c2.2,0,4.2-0.2,5.9-0.7c1.7-0.5,3.5-1.1,5.4-1.9   c0.9,1.1,1.5,2.5,1.8,4c0.3,1.6,0.5,3.3,0.5,5c-0.9,0.4-2,0.8-3.3,1.2c-1.2,0.4-2.5,0.7-3.9,0.9c-1.3,0.2-2.7,0.4-4,0.6   c-1.3,0.1-2.5,0.2-3.6,0.2c-3.4,0-6.3-0.4-8.7-1.2c-2.4-0.8-4.4-2-6-3.5c-1.6-1.5-2.7-3.4-3.5-5.6c-0.7-2.2-1.1-4.6-1.1-7.3   c0-3.4,0.6-6.7,1.7-10c1.2-3.3,2.8-6.2,5-8.8c2.1-2.6,4.7-4.7,7.8-6.2c3.1-1.6,6.5-2.4,10.4-2.4c1.8,0,3.5,0.2,5.1,0.7   c1.6,0.4,3,1.1,4.1,2c1.2,0.9,2.1,2,2.7,3.4c0.7,1.3,1,2.9,1,4.7c0,2.5-0.6,4.7-1.7,6.5c-1.2,1.8-2.7,3.4-4.7,4.7   c-1.9,1.3-4.1,2.3-6.6,3.1c-2.5,0.8-5,1.4-7.7,1.8L198.6,72.1z M203.3,63.6c2.1-0.3,3.8-0.8,5.2-1.3c1.3-0.5,2.4-1.1,3.2-1.7   c0.8-0.6,1.3-1.3,1.6-2c0.3-0.7,0.4-1.3,0.4-2c0-1.1-0.3-1.9-1-2.6c-0.7-0.7-1.6-1-2.8-1c-1.4,0-2.8,0.3-4,1   c-1.2,0.6-2.2,1.5-3.1,2.5c-0.9,1.1-1.7,2.3-2.3,3.6c-0.6,1.4-1.1,2.7-1.5,4.1L203.3,63.6z" fill="#222323"/>
	<path d="M231.5,63.9c0.6-3.5,1.1-6.6,1.4-9.3c0.3-2.7,0.5-4.8,0.5-6.3c0-0.6,0-1.1,0-1.5s0-0.9-0.1-1.4   c1.8-0.3,3.7-0.5,5.5-0.5c0.8,0,1.7,0,2.5,0.1c0.8,0.1,1.7,0.2,2.7,0.4c0.1,0.4,0.2,1,0.3,1.6c0.1,0.6,0.2,1.5,0.2,2.7   c0,0.5,0,1,0,1.5c0,0.5-0.1,1.1-0.2,1.8c0.6-1,1.2-2,2.1-3c0.8-1,1.8-1.8,2.8-2.6c1-0.8,2.2-1.4,3.4-1.9c1.2-0.5,2.6-0.7,4.1-0.7   c1.2,0,2.2,0.1,3,0.4c0.1,0.2,0.1,0.4,0.1,0.7c0,0.2,0,0.5,0,0.7c0,1.6-0.2,3.2-0.6,4.8c-0.4,1.7-0.9,3.1-1.6,4.2   c-0.3-0.1-0.7-0.1-1.1-0.2c-0.4-0.1-0.9-0.1-1.5-0.1c-2.3,0-4.1,0.4-5.6,1.2c-1.5,0.8-2.7,1.9-3.6,3.3c-0.9,1.4-1.7,3.1-2.2,5.1   c-0.6,2-1.1,4.2-1.5,6.7l-3.1,16.7c-2.2,0.3-4.2,0.5-6.1,0.5c-1.9,0-3.9-0.2-5.7-0.5L231.5,63.9z" fill="#222323"/>
	<path d="M269.7,54.4h-6.4c0-1.5,0.1-3,0.3-4.4c0.2-1.4,0.6-3,1.2-4.6h6.4l0.5-2.5c0.3-1.4,0.4-2.7,0.5-4   c0.1-1.2,0.1-2.3,0.1-3.1c1.4-0.9,3.2-1.6,5.4-2c2.2-0.4,4.2-0.6,6-0.6c0.3,0.8,0.4,1.9,0.4,3.2c0,0.9-0.1,1.8-0.2,2.9   c-0.1,1-0.3,2.2-0.5,3.4l-0.5,2.7h10.3c0,1.7-0.1,3.2-0.4,4.6c-0.3,1.4-0.7,2.9-1.2,4.4h-10.3l-2.9,16.4c-0.1,0.8-0.2,1.5-0.3,2.2   c-0.1,0.7-0.1,1.3-0.1,1.9c0,1.4,0.3,2.6,1,3.4c0.7,0.8,1.9,1.2,3.7,1.2c0.9,0,1.8-0.1,2.5-0.2c0.7-0.1,1.4-0.3,2-0.5   c0.7,1.6,1.1,3.7,1.1,6.3c0,0.4,0,0.9,0,1.3c0,0.4,0,0.9-0.1,1.3c-2.4,0.7-5.2,1.1-8.6,1.1c-4.7,0-8.1-0.9-10.4-2.6   c-2.2-1.7-3.4-4.6-3.4-8.7c0-0.8,0.1-1.7,0.2-2.6c0.1-0.9,0.2-1.9,0.4-2.9L269.7,54.4z" fill="#222323"/>
	<path d="M331.9,69.8c-0.6,3.5-1.1,6.6-1.3,9.3c-0.3,2.7-0.4,4.8-0.4,6.3c0,0.6,0,1.1,0,1.5s0,0.9,0.1,1.4   c-1.8,0.3-3.6,0.5-5.4,0.5c-1.6,0-3.3-0.2-5.2-0.5c-0.1-0.4-0.2-1-0.3-1.6c-0.1-0.6-0.2-1.5-0.2-2.7c0-0.5,0-1,0-1.6   c0-0.6,0.1-1.2,0.2-1.9c-1.6,2.6-3.7,4.7-6.2,6.4c-2.5,1.7-5.4,2.6-8.7,2.6c-3.7,0-6.4-1.2-8.2-3.5c-1.8-2.3-2.7-5.4-2.7-9.2   c0-4.2,0.6-8.2,1.9-12.1c1.2-3.9,3.1-7.3,5.6-10.3c2.5-3,5.5-5.4,9.2-7.2c3.7-1.8,7.9-2.7,12.8-2.7c2.4,0,4.7,0.2,6.8,0.5   c2.1,0.3,4.2,0.8,6.2,1.4L331.9,69.8z M323.3,54.3c-0.5-0.1-1-0.2-1.5-0.2c-0.5,0-0.9,0-1.4,0c-2.7,0-4.9,0.7-6.8,2   c-1.9,1.3-3.4,3-4.6,5c-1.2,2-2.1,4.1-2.7,6.4c-0.6,2.3-0.8,4.4-0.8,6.3c0,4.1,1.4,6.2,4.1,6.2c2.7,0,5.1-1.6,7.4-4.9   c2.3-3.2,3.9-7.8,5-13.7L323.3,54.3z" fill="#222323"/>
	<path d="M344.9,43.7c1-5.8,1.5-10.2,1.5-13.2c0-0.6,0-1.1,0-1.5c0-0.4-0.1-0.9-0.1-1.4c0.9-0.2,2-0.3,3.2-0.4   c1.2-0.1,2.3-0.1,3.2-0.1c1.6,0,3.4,0.2,5.3,0.5c0.3,0.8,0.4,1.9,0.4,3.2c0,2.4-0.3,5.4-1,8.9l-2.1,11.6c0.7-0.8,1.4-1.7,2.2-2.5   c0.8-0.8,1.7-1.5,2.8-2.2c1.1-0.7,2.3-1.2,3.7-1.6c1.4-0.4,3-0.6,4.8-0.6c3.9,0,6.9,1.3,8.9,4c2.1,2.7,3.1,6.5,3.1,11.6   c0,3.4-0.5,6.9-1.5,10.4c-1,3.5-2.7,6.7-5,9.5c-2.4,2.8-5.5,5.1-9.4,6.9c-3.9,1.8-8.7,2.7-14.4,2.7c-2.6,0-5-0.2-7.2-0.7   c-2.2-0.4-4.2-1.1-6.2-1.8L344.9,43.7z M350.4,79.1c0.4,0.2,1,0.3,1.7,0.4c0.7,0.1,1.4,0.1,2.1,0.1c2.4,0,4.5-0.6,6.3-1.7   c1.7-1.1,3.2-2.6,4.3-4.3c1.1-1.7,2-3.7,2.5-5.8c0.5-2.1,0.8-4.2,0.8-6.2c0-1.9-0.4-3.6-1.2-5c-0.8-1.4-2.2-2.1-4.1-2.1   c-2.6,0-4.7,1.1-6.6,3.2c-1.8,2.2-3.2,5.7-4,10.7L350.4,79.1z" fill="#222323"/>
	<path d="M395.7,72.1c0.3,2.7,1.2,4.6,2.7,5.9c1.4,1.3,3.5,2,6.3,2c2.2,0,4.2-0.2,5.9-0.7c1.7-0.5,3.5-1.1,5.4-1.9   c0.9,1.1,1.5,2.5,1.8,4c0.3,1.6,0.5,3.3,0.5,5c-0.9,0.4-2,0.8-3.3,1.2c-1.2,0.4-2.5,0.7-3.9,0.9c-1.3,0.2-2.7,0.4-4,0.6   c-1.3,0.1-2.5,0.2-3.6,0.2c-3.4,0-6.3-0.4-8.7-1.2c-2.4-0.8-4.4-2-6-3.5c-1.6-1.5-2.7-3.4-3.5-5.6c-0.7-2.2-1.1-4.6-1.1-7.3   c0-3.4,0.6-6.7,1.7-10c1.2-3.3,2.8-6.2,5-8.8c2.1-2.6,4.7-4.7,7.8-6.2c3.1-1.6,6.5-2.4,10.4-2.4c1.8,0,3.5,0.2,5.1,0.7   c1.6,0.4,3,1.1,4.1,2c1.2,0.9,2.1,2,2.7,3.4c0.7,1.3,1,2.9,1,4.7c0,2.5-0.6,4.7-1.7,6.5c-1.2,1.8-2.7,3.4-4.7,4.7   c-1.9,1.3-4.1,2.3-6.6,3.1c-2.5,0.8-5,1.4-7.7,1.8L395.7,72.1z M400.5,63.6c2.1-0.3,3.8-0.8,5.2-1.3c1.3-0.5,2.4-1.1,3.2-1.7   c0.8-0.6,1.3-1.3,1.6-2c0.3-0.7,0.4-1.3,0.4-2c0-1.1-0.3-1.9-1-2.6c-0.7-0.7-1.6-1-2.8-1c-1.4,0-2.8,0.3-4,1   c-1.2,0.6-2.2,1.5-3.1,2.5c-0.9,1.1-1.7,2.3-2.3,3.6c-0.6,1.4-1.1,2.7-1.5,4.1L400.5,63.6z" fill="#222323"/>
	<path d="M430.8,43.7c0.6-2.9,1-5.5,1.3-7.7c0.2-2.2,0.4-4,0.4-5.5c0-0.6,0-1.1,0-1.5c0-0.4-0.1-0.9-0.1-1.4   c0.9-0.2,2-0.3,3.2-0.4c1.2-0.1,2.3-0.1,3.2-0.1c1.6,0,3.4,0.2,5.3,0.5c0.3,0.8,0.4,1.9,0.4,3.2c0,1.2-0.1,2.5-0.3,4   c-0.2,1.5-0.5,3.1-0.8,4.9l-6.4,33.5c-0.2,0.9-0.2,1.7-0.2,2.3c0,0.9,0.1,1.6,0.4,2.1s0.6,0.9,1,1.2c0.4,0.3,0.8,0.5,1.3,0.5   c0.5,0.1,1,0.1,1.5,0.1c0.2,0,0.6,0,1.2-0.1c0.6-0.1,1.2-0.2,1.7-0.4c0.3,0.9,0.5,2,0.7,3.1c0.2,1.1,0.3,2.2,0.3,3.4   c0,0.4,0,0.9,0,1.2c0,0.4-0.1,0.8-0.1,1.2c-0.8,0.3-1.9,0.6-3.2,0.8c-1.3,0.2-2.8,0.3-4.4,0.3c-3.8,0-6.7-0.9-8.9-2.8   c-2.2-1.9-3.2-4.8-3.2-8.8c0-0.8,0.1-1.6,0.2-2.5c0.1-0.9,0.2-1.8,0.4-2.7L430.8,43.7z" fill="#222323"/>
	<path d="M463.5,89.4c-5.7,0-9.9-1.5-12.6-4.5c-2.7-3-4-7.1-4-12.3c0-3.3,0.5-6.7,1.5-10c1-3.4,2.5-6.4,4.5-9.1   c2-2.7,4.5-4.9,7.5-6.6c3-1.7,6.6-2.5,10.6-2.5c5.8,0,10,1.5,12.7,4.6c2.7,3.1,4,7.2,4,12.4c0,3.4-0.5,6.8-1.5,10.2   c-1,3.3-2.5,6.3-4.5,9c-2,2.7-4.5,4.8-7.6,6.4C471.2,88.6,467.6,89.4,463.5,89.4z M464.6,80.4c2.1,0,3.9-0.7,5.3-2   c1.4-1.3,2.6-3,3.5-5c0.9-2,1.6-4,2-6.2c0.4-2.2,0.6-4.2,0.6-5.9c0-5.1-2.1-7.7-6.2-7.7c-2.1,0-3.9,0.7-5.2,2.1   c-1.4,1.4-2.5,3.1-3.4,5.1c-0.9,2-1.5,4.1-1.9,6.3c-0.4,2.2-0.5,4.2-0.5,5.9C458.7,77.9,460.7,80.4,464.6,80.4z" fill="#222323"/>
</g>
<g>
	<polygon fill="#D15197" points="16.6,38.9 31,61.4 31,61.4 47.1,42.1 32.1,20.3  "/>
	<path d="M12.6,32.7C13.5,31.6,21,22.6,28,14.4L18,0h-7.2L0,13L12.6,32.7z" fill="#D15197"/>
	<path d="M34.9,67.5l16,25c0.9-1.1,7.8-9.3,17-20.3L51.2,48L34.9,67.5z" fill="#D15197"/>
	<polygon fill="#D15197" points="72.1,78.1 54.9,98.7 54.9,98.6 66.4,116.5 81.9,92.2  "/>
	<path d="M69.5,26.1L51.3,48l0,0L68,72.2c0,0,0,0,0,0c5.5-6.6,11.9-14.2,18.3-21.9L69.5,26.1z" fill="#5D2F87"/>
	<polygon fill="#5D2F87" points="90.4,56.2 72.1,78.1 72.1,78.1 81.9,92.2 81.9,92.2 97.9,67.1  "/>
	<polygon fill="#5D2F87" points="51.4,0 49,0 32.1,20.3 32.1,20.3 47.1,42.1 47.2,42 65.4,20.2  "/>
	<path d="M18.1,0L18.1,0L28,14.4c0,0,0,0,0-0.1C34.2,6.9,40,0,40,0H18.1z" fill="#5D2F87"/>
	<polygon fill="#25B6EA" points="51.5,0 51.4,0 65.4,20.2 65.4,20.2 82.3,0  "/>
	<path d="M88.5,3.4L69.5,26.1l0,0l16.7,24.1c0,0,0,0,0,0c6.5-7.8,13.1-15.7,19-22.7L88.5,3.4z" fill="#25B6EA"/>
	<polygon fill="#25B6EA" points="109.4,33.4 90.4,56.2 90.4,56.2 97.9,67.1 97.9,67.1 114.6,41  "/>
	<path d="M121.8,0H91.3l-2.7,3.3l-0.1,0.1l16.8,24.1c0,0,0.1-0.1,0.1-0.1C116.5,14,125,3.9,125,3.9L121.8,0z" fill="#93C149"/>
	<polygon fill="#93C149" points="129.5,9.3 109.5,33.3 109.4,33.4 114.6,41 114.7,40.9 132.5,13  "/>
</g>
</svg></svg></g></g></svg>